<?xml version="1.0" encoding="utf-8"?>

<!DOCTYPE svg PUBLIC "-//W3C//DTD SVG 1.1//EN" "http://www.w3.org/Graphics/SVG/1.1/DTD/svg11.dtd">
<svg version="1.1" id="Layer_1" xmlns="http://www.w3.org/2000/svg" xmlns:xlink="http://www.w3.org/1999/xlink" x="0px" y="0px"
	 viewBox="0 0 1630.664 1636.749" enable-background="new 0 0 1630.664 1636.749" xml:space="preserve">
<g id="Fills">
	<g>
		<g>
			<path fill="#135D4B" d="M1115.218,228.797c0,0-7.494-21.151,0.884-38.947c8.378-17.796,29.455-25.497,29.455-25.497
				s7.494,21.151-0.884,38.947C1136.295,221.096,1115.218,228.797,1115.218,228.797z"/>
			<path fill="#C7E51D" d="M298.412,283.123c0,0,3.692-22.134,19.643-33.642c15.951-11.509,38.12-8.034,38.12-8.034
				s-3.692,22.134-19.643,33.642C320.581,286.598,298.412,283.123,298.412,283.123z"/>
			<path fill="#A7CF13" d="M571.38,1098.618c0,0,11.707,19.143,7.192,38.287s-23.543,31.039-23.543,31.039
				s-11.707-19.143-7.192-38.287S571.38,1098.618,571.38,1098.618z"/>
			<path fill="#7905FB" d="M241.75,1256.986c0,0-20.533-9.052-27.738-27.354c-7.206-18.302,1.645-38.923,1.645-38.923
				s20.533,9.052,27.738,27.354C250.6,1236.366,241.75,1256.986,241.75,1256.986z"/>
			<path fill="#1F87FD" d="M84.862,752.111c0,0,11.263,19.408,6.309,38.443s-24.251,30.488-24.251,30.488
				S55.656,801.635,60.61,782.6C65.565,763.564,84.862,752.111,84.862,752.111z"/>
			<path fill="#0B455D" d="M1175.358,1074.434c0,0-8.905,20.597-27.154,27.934s-38.933-1.365-38.933-1.365
				s8.905-20.597,27.154-27.934S1175.358,1074.434,1175.358,1074.434z"/>
			<path fill="#D16D81" d="M461.303,174.917c0,0-22.213,3.177-38.009-8.544c-15.795-11.722-19.19-33.903-19.19-33.903
				s22.213-3.177,38.009,8.544C457.907,152.735,461.303,174.917,461.303,174.917z"/>
			<path fill="#85A741" d="M173.419,371.387c0,0,8.001,20.965,0.054,38.957c-7.947,17.992-28.833,26.199-28.833,26.199
				s-8.001-20.965-0.054-38.957C152.534,379.593,173.419,371.387,173.419,371.387z"/>
			<path fill="#999D8B" d="M387.78,1398.611c0,0,2.899,22.251-9.019,37.899c-11.918,15.647-34.14,18.765-34.14,18.765
				s-2.899-22.251,9.019-37.899C365.558,1401.728,387.78,1398.611,387.78,1398.611z"/>
			<path fill="#B50D21" d="M662.879,888.946c0,0,6.395,21.509-2.889,38.85c-9.283,17.341-30.729,23.946-30.729,23.946
				s-6.395-21.509,2.889-38.85S662.879,888.946,662.879,888.946z"/>
			<path fill="#2B53F5" d="M130.587,1216.31c0,0,18.112-13.247,37.564-10.326c19.451,2.92,32.875,20.902,32.875,20.902
				s-18.112,13.247-37.564,10.326C144.011,1234.292,130.587,1216.31,130.587,1216.31z"/>
			<path fill="#73AF81" d="M1473.945,598.261c0,0,17.497-14.049,37.061-12.007c19.563,2.042,33.783,19.4,33.783,19.4
				s-17.497,14.049-37.061,12.007C1488.165,615.62,1473.945,598.261,1473.945,598.261z"/>
			<path fill="#85FBD1" d="M1064.329,1102.472c0,0-19.722,10.704-38.608,5.207c-18.886-5.497-29.783-25.113-29.783-25.113
				s19.722-10.704,38.608-5.207C1053.432,1082.856,1064.329,1102.472,1064.329,1102.472z"/>
			<path fill="#510779" d="M152.279,1009.477c0,0-17.183,14.432-36.786,12.824c-19.604-1.609-34.204-18.649-34.204-18.649
				s17.183-14.432,36.786-12.824C137.678,992.437,152.279,1009.477,152.279,1009.477z"/>
			<path fill="#97FDB9" d="M790.344,354.382c0,0,2.372-22.314,17.611-34.749c15.24-12.435,37.576-10.283,37.576-10.283
				s-2.372,22.314-17.611,34.749S790.344,354.382,790.344,354.382z"/>
			<path fill="#9D2955" d="M1417.86,407.365c0,0-7.53-21.138,0.817-38.949c8.347-17.81,29.411-25.548,29.411-25.548
				s7.53,21.138-0.817,38.949C1438.924,399.628,1417.86,407.365,1417.86,407.365z"/>
			<path fill="#B19F95" d="M396.977,1293.844c0,0,7.286,21.224-1.267,38.937s-29.704,25.207-29.704,25.207
				s-7.286-21.224,1.267-38.937S396.977,1293.844,396.977,1293.844z"/>
			<path fill="#9BE1BB" d="M651.254,1032.435c0,0-14.97,16.717-34.604,17.896c-19.634,1.179-36.497-13.626-36.497-13.626
				s14.97-16.716,34.604-17.896C634.391,1017.63,651.254,1032.435,651.254,1032.435z"/>
			<path fill="#B9F15D" d="M265.648,1372.689c0,0-21.507-6.401-30.955-23.653c-9.448-17.252-3.258-38.821-3.258-38.821
				s21.507,6.401,30.955,23.653C271.838,1351.12,265.648,1372.689,265.648,1372.689z"/>
			<path fill="#13A1B5" d="M541.061,164.21c0,0,6.07,21.603-3.473,38.802c-9.543,17.199-31.086,23.481-31.086,23.481
				s-6.07-21.603,3.473-38.802C519.519,170.492,541.061,164.21,541.061,164.21z"/>
			<path fill="#9D27B1" d="M1542.858,855.259c0,0,11.133,19.483,6.05,38.485c-5.083,19.001-24.456,30.325-24.456,30.325
				s-11.133-19.483-6.05-38.484C1523.485,866.583,1542.858,855.259,1542.858,855.259z"/>
			<path fill="#53AD8B" d="M826.208,1322.357c0,0,0.762-22.427,15.068-35.925c14.306-13.499,36.74-12.957,36.74-12.957
				s-0.762,22.427-15.068,35.925C848.641,1322.899,826.208,1322.357,826.208,1322.357z"/>
			<path fill="#ABFD01" d="M744.547,1322.654c0,0,12.589-18.576,31.887-22.381c19.298-3.805,37.996,8.601,37.996,8.601
				s-12.589,18.576-31.887,22.381C763.246,1335.06,744.547,1322.654,744.547,1322.654z"/>
			<path fill="#619943" d="M769.289,1541.782c0,0-17.057,14.581-36.673,13.143c-19.617-1.438-34.365-18.351-34.365-18.351
				s17.057-14.581,36.673-13.143C754.541,1524.869,769.289,1541.782,769.289,1541.782z"/>
			<path fill="#D567A1" d="M967.142,1050.482c0,0,17.28-14.315,36.873-12.573c19.592,1.742,34.076,18.881,34.076,18.881
				s-17.281,14.315-36.873,12.573C981.626,1067.621,967.142,1050.482,967.142,1050.482z"/>
			<path fill="#17894D" d="M700.455,1556.56c0,0-22.142-3.64-33.689-19.563c-11.547-15.924-8.124-38.101-8.124-38.101
				s22.142,3.64,33.689,19.563C703.877,1534.383,700.455,1556.56,700.455,1556.56z"/>
			<path fill="#19AF6B" d="M571.017,1065.964c0,0,21.904,4.874,32.541,21.419c10.637,16.545,5.979,38.496,5.979,38.496
				s-21.904-4.874-32.541-21.419C566.359,1087.915,571.017,1065.964,571.017,1065.964z"/>
			<path fill="#0B9B9B" d="M1205.968,126.057c0,0-9.081,20.52-27.393,27.7c-18.312,7.18-38.92-1.699-38.92-1.699
				s9.081-20.52,27.393-27.7C1185.36,117.177,1205.968,126.057,1205.968,126.057z"/>
			<path fill="#A31D49" d="M1438.484,542.43c0,0,20.331,9.497,27.136,27.952c6.805,18.455-2.492,38.878-2.492,38.878
				s-20.33-9.497-27.136-27.952C1429.187,562.853,1438.484,542.43,1438.484,542.43z"/>
			<path fill="#4BF541" d="M755.364,1245.068c0,0,13.826-17.674,33.339-20.154c19.512-2.481,37.321,11.172,37.321,11.172
				s-13.826,17.674-33.339,20.154C773.173,1258.72,755.364,1245.068,755.364,1245.068z"/>
			<path fill="#61FD15" d="M862.424,1383.453c0,0-13.928-17.594-11.753-37.142c2.176-19.549,19.632-33.649,19.632-33.649
				s13.928,17.594,11.753,37.142C879.88,1369.353,862.424,1383.453,862.424,1383.453z"/>
			<path fill="#9DF549" d="M607.831,1577.173c0,0,10.263-19.955,28.963-26.054c18.7-6.099,38.755,3.967,38.755,3.967
				s-10.263,19.955-28.963,26.054C627.886,1587.239,607.831,1577.173,607.831,1577.173z"/>
			<path fill="#453997" d="M1370.646,1245.96c0,0,21.408,6.726,30.593,24.119c9.185,17.393,2.669,38.866,2.669,38.866
				s-21.408-6.726-30.593-24.12C1364.13,1267.433,1370.646,1245.96,1370.646,1245.96z"/>
			<path fill="#5F6FED" d="M99.172,537.396c0,0,2.074-22.343,17.146-34.981c15.073-12.637,37.435-10.783,37.435-10.783
				s-2.074,22.343-17.146,34.981C121.535,539.251,99.172,537.396,99.172,537.396z"/>
			<path fill="#1301D1" d="M1237.473,1235.773c0,0-21.685,5.77-38.75-4.011s-23.048-31.408-23.048-31.408s21.685-5.77,38.75,4.011
				C1231.49,1214.145,1237.473,1235.773,1237.473,1235.773z"/>
			<path fill="#711367" d="M700.828,82.734c0,0-13.343,18.042-32.781,21.05c-19.438,3.008-37.61-10.157-37.61-10.157
				s13.343-18.042,32.781-21.05C682.655,69.569,700.828,82.734,700.828,82.734z"/>
			<path fill="#63B953" d="M1318.521,205.98c0,0,17.379,14.195,19.449,33.755c2.07,19.56-11.953,37.078-11.953,37.078
				s-17.379-14.195-19.449-33.755C1304.498,223.498,1318.521,205.98,1318.521,205.98z"/>
			<path fill="#07E93D" d="M1367.535,1254.737c0,0-20.215,9.742-38.814,3.342c-18.599-6.4-28.539-26.518-28.539-26.518
				s20.215-9.742,38.814-3.342C1357.595,1234.619,1367.535,1254.737,1367.535,1254.737z"/>
			<path fill="#55B9A5" d="M777.356,821.886c0,0,15.875-15.859,35.544-15.946s35.683,15.632,35.683,15.632
				s-15.875,15.859-35.544,15.946C793.37,837.605,777.356,821.886,777.356,821.886z"/>
			<path fill="#A50F25" d="M721.867,32.807c0,0,20.661-8.756,38.93-1.466c18.269,7.289,27.227,27.863,27.227,27.863
				s-20.661,8.756-38.93,1.466C730.825,53.381,721.867,32.807,721.867,32.807z"/>
			<path fill="#4F490F" d="M583.519,46.697c0,0,22.032,4.257,33.129,20.497c11.097,16.24,7.056,38.313,7.056,38.313
				s-22.032-4.257-33.129-20.497C579.478,68.77,583.519,46.697,583.519,46.697z"/>
			<path fill="#57CD49" d="M129.902,617.876c0,0,21.278,7.127,30.134,24.69c8.857,17.563,1.938,38.909,1.938,38.909
				s-21.278-7.127-30.134-24.69C122.984,639.223,129.902,617.876,129.902,617.876z"/>
			<path fill="#6B1DC1" d="M1446.19,1141.541c0,0,7.872-21.013,25.736-29.246s38.953-0.567,38.953-0.567
				s-7.872,21.013-25.736,29.246S1446.19,1141.541,1446.19,1141.541z"/>
			<path fill="#59D55B" d="M474.397,165.398c0,0,18.79,12.267,22.927,31.496c4.137,19.229-7.945,38.139-7.945,38.139
				s-18.79-12.267-22.927-31.496C462.315,184.307,474.397,165.398,474.397,165.398z"/>
			<path fill="#DB5781" d="M1364.623,328.986c0,0,16.254-15.47,35.92-15.081s35.295,16.492,35.295,16.492
				s-16.254,15.47-35.92,15.081C1380.252,345.087,1364.623,328.986,1364.623,328.986z"/>
			<path fill="#DFDDC9" d="M1255.879,1290.297c0,0,9.81-20.182,28.367-26.702c18.557-6.52,38.835,3.092,38.835,3.092
				s-9.81,20.182-28.367,26.701C1276.156,1299.908,1255.879,1290.297,1255.879,1290.297z"/>
			<path fill="#513555" d="M807.474,1189.654c0,0,15.019-16.672,34.656-17.793c19.637-1.121,36.456,13.734,36.456,13.734
				s-15.019,16.672-34.656,17.793C824.293,1204.509,807.474,1189.654,807.474,1189.654z"/>
			<path fill="#83CB63" d="M143.347,1197.344c0,0-21.237-7.246-29.995-24.858c-8.758-17.612-1.721-38.919-1.721-38.919
				s21.237,7.246,29.995,24.858C150.384,1176.036,143.347,1197.344,143.347,1197.344z"/>
			<path fill="#8D4BAD" d="M753.15,1049.761c0,0,19.165-11.671,38.301-7.12c19.136,4.551,30.995,23.601,30.995,23.601
				s-19.165,11.671-38.301,7.12S753.15,1049.761,753.15,1049.761z"/>
			<path fill="#2B8773" d="M1051.019,962.888c0,0-18.744,12.337-38.028,8.46c-19.284-3.877-31.804-22.499-31.804-22.499
				s18.744-12.337,38.028-8.46C1038.499,944.266,1051.019,962.888,1051.019,962.888z"/>
			<path fill="#572DF3" d="M588.047,192.794c0,0-1.388-22.397,11.56-37.203c12.949-14.806,35.331-16.414,35.331-16.414
				s1.388,22.396-11.56,37.203C610.429,191.186,588.047,192.794,588.047,192.794z"/>
			<path fill="#87B3E7" d="M873.492,1561.34c0,0-1.861,22.362-16.813,35.143c-14.951,12.78-37.331,11.139-37.331,11.139
				s1.861-22.362,16.813-35.143S873.492,1561.34,873.492,1561.34z"/>
			<path fill="#9F5BA9" d="M767.765,68.031c0,0,9.899,20.138,3.643,38.786c-6.255,18.648-26.296,28.744-26.296,28.744
				s-9.899-20.138-3.643-38.786C747.725,78.127,767.765,68.031,767.765,68.031z"/>
			<path fill="#41251B" d="M109.178,754.73c0,0,17.324,14.262,19.318,33.83c1.994,19.568-12.098,37.031-12.098,37.031
				s-17.324-14.262-19.318-33.83C95.086,772.193,109.178,754.73,109.178,754.73z"/>
			<path fill="#8731B3" d="M117.912,702.294c0,0-19.808-10.543-25.644-29.327c-5.835-18.784,4.513-38.695,4.513-38.695
				s19.808,10.543,25.644,29.327C128.26,682.383,117.912,702.294,117.912,702.294z"/>
			<path fill="#93391B" d="M325.728,1221.585c0,0,20.191-9.791,38.805-3.436c18.615,6.355,28.603,26.449,28.603,26.449
				s-20.191,9.791-38.805,3.436C335.716,1241.679,325.728,1221.585,325.728,1221.585z"/>
			<path fill="#95B161" d="M1231.53,1269.064c0,0-19.386,11.3-38.431,6.382c-19.045-4.918-30.535-24.193-30.535-24.193
				s19.386-11.3,38.431-6.382C1220.04,1249.79,1231.53,1269.064,1231.53,1269.064z"/>
			<path fill="#D3C777" d="M758.076,1456.701c0,0-11.106-19.498-5.997-38.493c5.109-18.994,24.497-30.291,24.497-30.291
				s11.106,19.498,5.997,38.493S758.076,1456.701,758.076,1456.701z"/>
			<path fill="#F961F9" d="M1532.571,946.545c0,0-21.453,6.58-38.873-2.553c-17.42-9.133-24.21-30.521-24.21-30.521
				s21.453-6.58,38.873,2.553C1525.781,925.157,1532.571,946.545,1532.571,946.545z"/>
			<path fill="#AD33CB" d="M1363.973,1181.592c0,0,18.578,12.586,22.386,31.883c3.808,19.297-8.595,37.997-8.595,37.997
				s-18.578-12.586-22.386-31.883C1351.57,1200.292,1363.973,1181.592,1363.973,1181.592z"/>
			<path fill="#F5A34B" d="M406.985,1167.344c0,0-5.813,21.674-22.8,31.588c-16.988,9.914-38.718,4.315-38.718,4.315
				s5.813-21.674,22.8-31.588C385.255,1161.745,406.985,1167.344,406.985,1167.344z"/>
			<path fill="#E1AD67" d="M922.99,1003.692c0,0,20.408-9.329,38.873-2.553c18.465,6.776,27.994,27.092,27.994,27.092
				s-20.408,9.329-38.873,2.553S922.99,1003.692,922.99,1003.692z"/>
			<path fill="#A5313F" d="M870.789,828.326c0,0,8.314,20.842,0.638,38.952c-7.676,18.11-28.436,26.628-28.436,26.628
				s-8.314-20.842-0.638-38.952S870.789,828.326,870.789,828.326z"/>
			<path fill="#334771" d="M1213.091,1399.828c0,0-10.361-19.904-4.539-38.692s25.624-29.344,25.624-29.344
				s10.361,19.904,4.539,38.692S1213.091,1399.828,1213.091,1399.828z"/>
			<path fill="#476931" d="M1113.109,1206.946c0,0-13.272-18.094-10.379-37.549c2.893-19.456,20.856-32.905,20.856-32.905
				s13.272,18.094,10.379,37.549C1131.071,1193.497,1113.109,1206.946,1113.109,1206.946z"/>
			<path fill="#71DDAF" d="M1298.823,1293.248c0,0,11.942,18.998,7.662,38.196c-4.28,19.198-23.16,31.326-23.16,31.326
				s-11.942-18.998-7.662-38.196S1298.823,1293.248,1298.823,1293.248z"/>
			<path fill="#5D51B5" d="M988.044,121.838c0,0-2.644,22.283-18.034,34.532c-15.39,12.249-37.698,9.824-37.698,9.824
				s2.644-22.283,18.034-34.532C965.736,119.413,988.044,121.838,988.044,121.838z"/>
			<path fill="#A123D7" d="M218.525,1127.003c0,0,20.221,9.728,26.817,28.258c6.595,18.531-2.933,38.847-2.933,38.847
				s-20.221-9.727-26.817-28.258C208.997,1147.319,218.525,1127.003,218.525,1127.003z"/>
			<path fill="#95DB11" d="M1277.586,1186.198c0,0,18.648,12.481,22.566,31.756c3.917,19.275-8.38,38.046-8.38,38.046
				s-18.648-12.481-22.566-31.756C1265.289,1204.968,1277.586,1186.198,1277.586,1186.198z"/>
			<path fill="#F5E553" d="M128.189,822.848c0,0,19.806,10.548,25.636,29.334c5.83,18.786-4.524,38.694-4.524,38.694
				s-19.806-10.548-25.636-29.334C117.836,842.757,128.189,822.848,128.189,822.848z"/>
			<path fill="#9F596D" d="M188.042,410.096c0,0,1.839-22.364,16.778-35.159c14.939-12.795,37.32-11.175,37.32-11.175
				s-1.839,22.364-16.778,35.159C210.423,411.716,188.042,410.096,188.042,410.096z"/>
			<path fill="#873127" d="M1586.42,985.746c0,0,3.168,22.215-8.56,38.005c-11.728,15.79-33.911,19.176-33.911,19.176
				s-3.168-22.215,8.56-38.005C1564.238,989.132,1586.42,985.746,1586.42,985.746z"/>
			<path fill="#91C131" d="M1498.39,1215.796c0,0-22.295-2.545-34.611-17.881s-9.991-37.655-9.991-37.655
				s22.295,2.545,34.611,17.881C1500.716,1193.477,1498.39,1215.796,1498.39,1215.796z"/>
			<path fill="#CFBD2D" d="M321.027,217.867c0,0-3.751,22.124-19.733,33.59c-15.982,11.466-38.141,7.932-38.141,7.932
				s3.751-22.124,19.733-33.59C298.867,214.333,321.027,217.867,321.027,217.867z"/>
			<path fill="#CD23CB" d="M754.168,598.033c0,0,13.263-18.1,32.688-21.194c19.425-3.094,37.654,9.991,37.654,9.991
				s-13.263,18.1-32.688,21.194C772.398,611.118,754.168,598.033,754.168,598.033z"/>
			<path fill="#179199" d="M878.239,826.844c0,0,21.549-6.257,38.831,3.136c17.281,9.394,23.75,30.881,23.75,30.881
				s-21.549,6.257-38.831-3.136C884.707,848.331,878.239,826.844,878.239,826.844z"/>
			<path fill="#59F7CD" d="M329.383,290.098c0,0-0.69,22.429-14.953,35.973c-14.263,13.544-36.698,13.075-36.698,13.075
				s0.69-22.429,14.953-35.973C306.948,289.629,329.383,290.098,329.383,290.098z"/>
			<path fill="#E5B56F" d="M1353.845,1267.757c0,0,6.161,21.577-3.31,38.816c-9.471,17.239-30.987,23.612-30.987,23.612
				s-6.161-21.577,3.31-38.816C1332.329,1274.13,1353.845,1267.757,1353.845,1267.757z"/>
			<path fill="#676F65" d="M747.11,161.643c0,0-22.412,1.11-37.056-12.021c-14.644-13.131-15.974-35.532-15.974-35.532
				s22.412-1.11,37.056,12.021C745.78,139.243,747.11,161.643,747.11,161.643z"/>
			<path fill="#5B97C5" d="M412.834,1309.103c0,0-12.736-18.475-9.275-37.837c3.462-19.362,21.811-32.28,21.811-32.28
				s12.736,18.475,9.275,37.837C431.183,1296.186,412.834,1309.103,412.834,1309.103z"/>
			<path fill="#D1AB7F" d="M1525.166,843.709c0,0-1.688,22.376-16.539,35.272s-37.244,11.428-37.244,11.428
				s1.688-22.376,16.54-35.272C1502.775,842.241,1525.166,843.709,1525.166,843.709z"/>
			<path fill="#1BC597" d="M1443.173,1174.177c0,0-22.435-0.424-36.148-14.525c-13.713-14.101-13.509-36.54-13.509-36.54
				s22.436,0.424,36.148,14.525C1443.376,1151.738,1443.173,1174.177,1443.173,1174.177z"/>
			<path fill="#A347A7" d="M838.17,515.355c0,0-4.375-22.009,6.474-38.415c10.849-16.407,32.814-20.997,32.814-20.997
				s4.375,22.009-6.474,38.415C860.135,510.764,838.17,515.355,838.17,515.355z"/>
			<path fill="#3119AD" d="M198.017,1068.173c0,0-22.207-3.219-34.054-18.92c-11.847-15.702-8.846-37.94-8.846-37.94
				s22.207,3.219,34.054,18.92C201.017,1045.935,198.017,1068.173,198.017,1068.173z"/>
			<path fill="#41BFBD" d="M480.79,1068.364c0,0,4.802,21.92-5.726,38.534c-10.528,16.615-32.4,21.632-32.4,21.632
				s-4.802-21.92,5.726-38.534C458.918,1073.381,480.79,1068.364,480.79,1068.364z"/>
			<path fill="#7B7FBF" d="M130.25,961.387c0,0-8.4-20.808-0.799-38.949c7.601-18.141,28.326-26.746,28.326-26.746
				s8.4,20.808,0.799,38.949C150.974,952.783,130.25,961.387,130.25,961.387z"/>
			<path fill="#F98FE7" d="M785.698,920.425c0,0-22.107,3.85-38.25-7.387c-16.144-11.237-20.21-33.305-20.21-33.305
				s22.107-3.85,38.25,7.387S785.698,920.425,785.698,920.425z"/>
			<path fill="#5D4B15" d="M331.895,1280.472c0,0-22.324-2.269-34.83-17.452s-10.455-37.528-10.455-37.528
				s22.324,2.269,34.83,17.452C333.945,1258.126,331.895,1280.472,331.895,1280.472z"/>
			<path fill="#67E957" d="M1478.632,1014.929c0,0,1.791,22.368-10.889,37.404c-12.68,15.036-35.03,17.047-35.03,17.047
				s-1.791-22.368,10.889-37.404C1456.283,1016.94,1478.632,1014.929,1478.632,1014.929z"/>
			<path fill="#419BEF" d="M890.301,1538.34c0,0,12.085-18.907,31.273-23.23s38.214,7.576,38.214,7.576s-12.085,18.907-31.273,23.23
				C909.326,1550.239,890.301,1538.34,890.301,1538.34z"/>
			<path fill="#5F8147" d="M675.18,917.315c0,0,19.491-11.119,38.489-6.023c18.998,5.096,30.308,24.477,30.308,24.477
				s-19.491,11.119-38.489,6.023C686.49,936.696,675.18,917.315,675.18,917.315z"/>
			<path fill="#111FFB" d="M844.008,1528.294c0,0-21.845-5.133-32.284-21.803c-10.44-16.67-5.521-38.564-5.521-38.564
				s21.844,5.133,32.284,21.803C848.927,1506.4,844.008,1528.294,844.008,1528.294z"/>
			<path fill="#174B4D" d="M771.081,446.786c0,0-18.126-13.227-21.258-32.646c-3.132-19.418,9.917-37.674,9.917-37.674
				s18.126,13.227,21.258,32.646C784.13,428.53,771.081,446.786,771.081,446.786z"/>
			<path fill="#172BC9" d="M703.486,155.071c0,0-14.969,16.717-34.603,17.896c-19.634,1.179-36.497-13.626-36.497-13.626
				s14.969-16.717,34.603-17.896C686.623,140.266,703.486,155.071,703.486,155.071z"/>
			<path fill="#E719D7" d="M1129.081,1191.592c0,0,22.436,0.409,36.158,14.501s13.533,36.531,13.533,36.531
				s-22.436-0.409-36.158-14.501C1128.892,1214.031,1129.081,1191.592,1129.081,1191.592z"/>
			<path fill="#F1738B" d="M351.399,327.377c0,0,1.518-22.388,16.271-35.396c14.754-13.008,37.156-11.711,37.156-11.711
				s-1.518,22.388-16.271,35.396C373.801,328.675,351.399,327.377,351.399,327.377z"/>
			<path fill="#01BB0B" d="M1096.608,1010.575c0,0,2.847,22.258-9.108,37.878c-11.955,15.62-34.184,18.685-34.184,18.685
				s-2.847-22.258,9.108-37.878C1074.379,1013.641,1096.608,1010.575,1096.608,1010.575z"/>
			<path fill="#D9C52F" d="M1349.471,1311.355c0,0,19.49-11.12,38.488-6.025c18.998,5.095,30.309,24.475,30.309,24.475
				s-19.49,11.12-38.488,6.025C1360.782,1330.736,1349.471,1311.355,1349.471,1311.355z"/>
			<path fill="#43DF5B" d="M1254.772,284.232c0,0-21.19,7.384-38.942-1.085c-17.752-8.47-25.344-29.586-25.344-29.586
				s21.19-7.384,38.942,1.085C1247.18,263.116,1254.772,284.232,1254.772,284.232z"/>
			<path fill="#532BA7" d="M1555.389,699.205c0,0,8.604,20.724,1.181,38.939c-7.423,18.215-28.062,27.022-28.062,27.022
				s-8.604-20.724-1.181-38.939C1534.75,708.012,1555.389,699.205,1555.389,699.205z"/>
			<path fill="#9B00AF" d="M1036.975,1551.71c0,0-8.91,20.595-27.162,27.927c-18.252,7.332-38.933-1.376-38.933-1.376
				s8.91-20.595,27.162-27.927S1036.975,1551.71,1036.975,1551.71z"/>
			<path fill="#5713B5" d="M1566.112,982.596c0,0-16.579,15.122-36.232,14.315s-34.937-17.236-34.937-17.236
				s16.579-15.122,36.232-14.315S1566.112,982.596,1566.112,982.596z"/>
			<path fill="#F5D3F9" d="M780.905,761.766c0,0-20.535-9.047-27.745-27.347c-7.21-18.3,1.635-38.923,1.635-38.923
				s20.535,9.047,27.745,27.347C789.75,741.143,780.905,761.766,780.905,761.766z"/>
			<path fill="#5D2F83" d="M1151.225,1057.308c0,0-19.612,10.905-38.552,5.601s-30.037-24.808-30.037-24.808
				s19.612-10.905,38.552-5.601C1140.128,1037.804,1151.225,1057.308,1151.225,1057.308z"/>
			<path fill="#D9EBAF" d="M316.77,1292.239c0,0-15.361,16.358-35.017,17.073c-19.656,0.715-36.165-14.485-36.165-14.485
				s15.361-16.358,35.017-17.073C300.262,1277.039,316.77,1292.239,316.77,1292.239z"/>
			<path fill="#25E79B" d="M1228.003,202.183c0,0-19.833,10.497-38.66,4.804c-18.827-5.694-29.519-25.423-29.519-25.423
				s19.833-10.497,38.66-4.804C1217.311,182.454,1228.003,202.183,1228.003,202.183z"/>
			<path fill="#65333B" d="M978.38,885.786c0,0-16.364,15.355-36.026,14.826s-35.177-16.741-35.177-16.741
				s16.364-15.355,36.026-14.826C962.865,869.574,978.38,885.786,978.38,885.786z"/>
			<path fill="#BB4F1B" d="M624.656,64.023c0,0,9.882-20.146,28.463-26.599c18.581-6.453,38.823,3.231,38.823,3.231
				s-9.882,20.146-28.463,26.599C644.898,73.707,624.656,64.023,624.656,64.023z"/>
			<path fill="#419545" d="M868.104,1604.451c0,0,2.251-22.326,17.423-34.844c15.172-12.518,37.52-10.486,37.52-10.486
				s-2.251,22.326-17.423,34.844S868.104,1604.451,868.104,1604.451z"/>
			<path fill="#67B713" d="M592.164,1432.828c0,0,15.127,16.574,14.327,36.227c-0.8,19.653-17.225,34.942-17.225,34.942
				s-15.127-16.574-14.327-36.227S592.164,1432.828,592.164,1432.828z"/>
			<path fill="#2533AF" d="M1058.479,1031.665c0,0-15.923-15.811-16.089-35.479c-0.166-19.669,15.488-35.746,15.488-35.746
				s15.923,15.811,16.089,35.479C1074.133,1015.587,1058.479,1031.665,1058.479,1031.665z"/>
			<path fill="#6375CF" d="M1258.836,1437.57c0,0-21.336,6.949-38.912-1.883c-17.575-8.831-24.733-30.099-24.733-30.099
				s21.336-6.949,38.912,1.882C1251.678,1416.303,1258.836,1437.57,1258.836,1437.57z"/>
			<path fill="#799117" d="M1092.716,84.995c0,0,21.137-7.533,38.949,0.812c17.812,8.345,25.552,29.408,25.552,29.408
				s-21.137,7.533-38.949-0.812C1100.456,106.057,1092.716,84.995,1092.716,84.995z"/>
			<path fill="#FDBFF7" d="M1039.923,117.339c0,0-7.161-21.266,1.495-38.928c8.656-17.662,29.851-25.031,29.851-25.031
				s7.161,21.266-1.495,38.928C1061.118,109.97,1039.923,117.339,1039.923,117.339z"/>
			<path fill="#DF094D" d="M62.252,680.361c0,0-16.393-15.323-17.153-34.977c-0.76-19.655,14.401-36.198,14.401-36.198
				s16.393,15.323,17.153,34.977C77.413,663.817,62.252,680.361,62.252,680.361z"/>
			<path fill="#85FB31" d="M1003.051,895.309c0,0,1.621,22.381-11.173,37.32c-12.794,14.94-35.158,16.78-35.158,16.78
				s-1.621-22.381,11.173-37.32C980.687,897.149,1003.051,895.309,1003.051,895.309z"/>
			<path fill="#A7915F" d="M273.881,1320.068c0,0,22.325,2.265,34.833,17.446c12.508,15.18,10.462,37.526,10.462,37.526
				s-22.325-2.265-34.833-17.446C271.835,1342.414,273.881,1320.068,273.881,1320.068z"/>
			<path fill="#DB8973" d="M205.427,1203.951c0,0-22.419-0.959-35.791-15.384c-13.372-14.425-12.633-36.852-12.633-36.852
				s22.419,0.959,35.791,15.384C206.166,1181.524,205.427,1203.951,205.427,1203.951z"/>
			<path fill="#EBA1A7" d="M942.203,1498.769c0,0-19.625,10.88-38.559,5.553s-30.006-24.845-30.006-24.845
				s19.625-10.88,38.559-5.553C931.131,1479.251,942.203,1498.769,942.203,1498.769z"/>
			<path fill="#0BF127" d="M590.031,1579.829c0,0-14.636-17.009-13.261-36.631c1.375-19.621,18.24-34.423,18.24-34.423
				s14.636,17.01,13.261,36.631C606.896,1565.027,590.031,1579.829,590.031,1579.829z"/>
			<path fill="#0B7B15" d="M1052.796,1433.086c0,0,20.099-9.978,38.772-3.796c18.673,6.182,28.847,26.182,28.847,26.182
				s-20.099,9.978-38.772,3.796C1062.97,1453.086,1052.796,1433.086,1052.796,1433.086z"/>
			<path fill="#CDD53B" d="M488.502,163.901c0,0-21.976-4.538-32.864-20.919c-10.889-16.381-6.566-38.4-6.566-38.4
				s21.976,4.538,32.864,20.919C492.824,141.881,488.502,163.901,488.502,163.901z"/>
			<path fill="#FD9D09" d="M724.318,901.797c0,0-22.295,2.542-37.749-9.626c-15.454-12.168-18.214-34.437-18.214-34.437
				s22.295-2.542,37.749,9.626C721.558,879.528,724.318,901.797,724.318,901.797z"/>
			<path fill="#23DB4B" d="M1443.645,469.375c0,0-18.833,12.201-38.088,8.185s-31.64-22.728-31.64-22.728
				s18.833-12.201,38.088-8.185C1431.26,450.663,1443.645,469.375,1443.645,469.375z"/>
			<path fill="#21CB95" d="M518.407,1500.979c0,0-11.711,19.141-30.811,23.839c-19.1,4.699-38.355-6.825-38.355-6.825
				s11.712-19.141,30.811-23.839C499.152,1489.456,518.407,1500.979,518.407,1500.979z"/>
			<path fill="#BDB9A7" d="M1113.297,1484.658c0,0,20.913,8.135,28.921,26.1c8.008,17.965,0.079,38.957,0.079,38.957
				s-20.913-8.135-28.922-26.1C1105.368,1505.65,1113.297,1484.658,1113.297,1484.658z"/>
			<path fill="#D1D7F5" d="M883.522,1550.097c0,0-20.322-9.516-27.11-27.977s2.528-38.875,2.528-38.875s20.322,9.516,27.11,27.977
				C892.838,1529.683,883.522,1550.097,883.522,1550.097z"/>
			<path fill="#7703F1" d="M852.969,708.161c0,0-10.866-19.633-5.525-38.563c5.341-18.93,24.867-29.989,24.867-29.989
				s10.866,19.633,5.525,38.563S852.969,708.161,852.969,708.161z"/>
			<path fill="#A70FB7" d="M1191.298,1116.694c0,0,22.248,2.922,34.303,18.465c12.055,15.542,9.351,37.818,9.351,37.818
				s-22.248-2.922-34.303-18.465C1188.595,1138.97,1191.298,1116.694,1191.298,1116.694z"/>
			<path fill="#00DDF7" d="M820.972,1467.162c0,0,8.035-20.952,25.961-29.046c17.927-8.094,38.956-0.266,38.956-0.266
				s-8.035,20.952-25.961,29.046C842.002,1474.99,820.972,1467.162,820.972,1467.162z"/>
			<path fill="#D96109" d="M1461.639,1012.525c0,0-8.662-20.7-1.29-38.936c7.372-18.236,27.987-27.1,27.987-27.1
				s8.662,20.7,1.29,38.936C1482.253,1003.661,1461.639,1012.525,1461.639,1012.525z"/>
			<path fill="#D3392D" d="M869.192,1165.603c0,0-17.76-13.716-20.362-33.212c-2.602-19.496,10.939-37.39,10.939-37.39
				s17.76,13.716,20.362,33.212C882.733,1147.709,869.192,1165.603,869.192,1165.603z"/>
			<path fill="#5F9397" d="M85.59,513.835c0,0,16.686,15.003,17.826,34.64s-13.699,36.469-13.699,36.469S73.03,569.94,71.89,550.304
				S85.59,513.835,85.59,513.835z"/>
			<path fill="#7D6369" d="M261.64,325.265c0,0-9.392-20.38-2.672-38.865c6.72-18.486,27.007-28.077,27.007-28.077
				s9.392,20.38,2.672,38.865C281.927,315.673,261.64,325.265,261.64,325.265z"/>
			<path fill="#3F1777" d="M825.453,247.002c0,0,22.364-1.84,37.428,10.808c15.064,12.648,17.123,34.992,17.123,34.992
				s-22.364,1.84-37.428-10.808C827.512,269.347,825.453,247.002,825.453,247.002z"/>
			<path fill="#45B133" d="M823.838,148.229c0,0-13.765,17.721-33.269,20.269c-19.504,2.548-37.359-11.043-37.359-11.043
				s13.765-17.721,33.269-20.269S823.838,148.229,823.838,148.229z"/>
			<path fill="#AB7763" d="M498.668,1419.949c0,0-22.247,2.932-37.912-8.964c-15.665-11.895-18.815-34.113-18.815-34.113
				s22.247-2.932,37.912,8.964C495.518,1397.731,498.668,1419.949,498.668,1419.949z"/>
			<path fill="#EB1957" d="M518.186,1165.916c0,0-21.83,5.195-38.631-5.033c-16.801-10.228-22.21-32.006-22.21-32.006
				s21.83-5.195,38.631,5.033S518.186,1165.916,518.186,1165.916z"/>
			<path fill="#4D6753" d="M777.479,1565.18c0,0-12.706-18.496-9.212-37.852c3.494-19.357,21.864-32.243,21.864-32.243
				s12.706,18.496,9.212,37.852C795.849,1552.294,777.479,1565.18,777.479,1565.18z"/>
			<path fill="#69AF1B" d="M774.387,851.478c0,0-18.248,13.06-37.668,9.94s-32.659-21.239-32.659-21.239s18.248-13.06,37.668-9.94
				S774.387,851.478,774.387,851.478z"/>
			<path fill="#F1E7F5" d="M45.983,891.898c0,0,16.104,15.627,16.496,35.292c0.392,19.666-15.076,35.922-15.076,35.922
				s-16.104-15.627-16.496-35.292C30.515,908.155,45.983,891.898,45.983,891.898z"/>
			<path fill="#F35D5B" d="M351.547,172.176c0,0,11.747,19.119,7.272,38.272c-4.475,19.154-23.478,31.088-23.478,31.088
				s-11.747-19.119-7.272-38.272C332.544,184.111,351.547,172.176,351.547,172.176z"/>
			<path fill="#DF5F41" d="M426.185,181.002c0,0-17.775,13.696-37.294,11.263c-19.518-2.433-33.388-20.073-33.388-20.073
				s17.775-13.696,37.294-11.263C412.315,163.362,426.185,181.002,426.185,181.002z"/>
			<path fill="#01B99D" d="M1105.52,1501.696c0,0,8.425,20.798,0.845,38.948c-7.58,18.15-28.294,26.779-28.294,26.779
				s-8.425-20.798-0.845-38.948S1105.52,1501.696,1105.52,1501.696z"/>
			<path fill="#5957BD" d="M1400.39,1348.077c0,0-13.299,18.074-32.73,21.129c-19.431,3.055-37.634-10.066-37.634-10.066
				s13.299-18.074,32.73-21.129C1382.186,1334.956,1400.39,1348.077,1400.39,1348.077z"/>
			<path fill="#89E3E1" d="M1201.216,250.043c0,0-21.94,4.707-38.509-5.893c-16.568-10.6-21.491-32.494-21.491-32.494
				s21.94-4.707,38.509,5.893C1196.294,228.15,1201.216,250.043,1201.216,250.043z"/>
			<path fill="#09072D" d="M822.599,477.887c0,0-20.139-9.897-26.579-28.482c-6.44-18.585,3.259-38.821,3.259-38.821
				s20.139,9.897,26.579,28.482C832.297,457.651,822.599,477.887,822.599,477.887z"/>
			<path fill="#E7CFCF" d="M1314.281,277.633c0,0-10.531,19.815-29.312,25.661s-38.698-4.49-38.698-4.49
				s10.531-19.815,29.312-25.661C1294.364,267.296,1314.281,277.633,1314.281,277.633z"/>
			<path fill="#BF0767" d="M741.215,1006.422c0,0,19.152-11.693,38.293-7.164s31.021,23.566,31.021,23.566
				s-19.152,11.693-38.293,7.164C753.096,1025.459,741.215,1006.422,741.215,1006.422z"/>
			<path fill="#4DF755" d="M437.371,1446.299c0,0,14.439-17.177,34.027-18.97c19.588-1.793,36.905,12.477,36.905,12.477
				s-14.439,17.177-34.027,18.97C454.689,1460.569,437.371,1446.299,437.371,1446.299z"/>
			<path fill="#B91963" d="M857.472,251.236c0,0-11.546-19.241-6.87-38.347c4.676-19.105,23.803-30.84,23.803-30.84
				s11.546,19.241,6.87,38.347C876.599,239.502,857.472,251.236,857.472,251.236z"/>
			<path fill="#0983EF" d="M1478.604,470.984c0,0-22.431-0.605-36.03-14.817c-13.598-14.212-13.214-36.648-13.214-36.648
				s22.431,0.605,36.03,14.816C1478.989,448.548,1478.604,470.984,1478.604,470.984z"/>
			<path fill="#3D9977" d="M370.577,1379.641c0,0,8.762-20.658,26.961-28.121c18.199-7.463,38.942,1.096,38.942,1.096
				s-8.762,20.658-26.961,28.121C391.321,1388.2,370.577,1379.641,370.577,1379.641z"/>
			<path fill="#F3A75F" d="M493.94,164.016c0,0,4.484-21.987,20.838-32.916c16.354-10.929,38.384-6.66,38.384-6.66
				s-4.484,21.987-20.838,32.916C515.97,168.285,493.94,164.016,493.94,164.016z"/>
			<path fill="#37C321" d="M799.805,1397.312c0,0-22.436,0.37-36.639-13.238c-14.203-13.608-14.793-36.04-14.793-36.04
				s22.436-0.37,36.639,13.238C799.215,1374.88,799.805,1397.312,799.805,1397.312z"/>
			<path fill="#510DEB" d="M1263.25,1463.219c0,0-12.372,18.721-31.624,22.75c-19.252,4.03-38.094-8.158-38.094-8.158
				s12.372-18.721,31.624-22.75S1263.25,1463.219,1263.25,1463.219z"/>
			<path fill="#7D2107" d="M232.009,327.388c0,0-5.698,21.704-22.633,31.708c-16.935,10.004-38.694,4.519-38.694,4.519
				s5.698-21.704,22.633-31.708C210.25,321.904,232.009,327.388,232.009,327.388z"/>
			<path fill="#3D378B" d="M924.803,970.393c0,0,17.987-13.416,37.465-10.678c19.478,2.738,33.07,20.593,33.07,20.593
				s-17.987,13.416-37.465,10.678C938.395,988.247,924.803,970.393,924.803,970.393z"/>
			<path fill="#E9432F" d="M28.143,795.182c0,0-6.558-21.46,2.592-38.871c9.151-17.411,30.545-24.18,30.545-24.18
				s6.558,21.46-2.592,38.871C49.537,788.413,28.143,795.182,28.143,795.182z"/>
			<path fill="#C3D105" d="M1336.904,349.211c0,0-14.547-17.086-13.07-36.699c1.477-19.614,18.42-34.328,18.42-34.328
				s14.547,17.086,13.069,36.699C1353.847,334.497,1336.904,349.211,1336.904,349.211z"/>
			<path fill="#3B81AB" d="M811.895,796.122c0,0-15.863-15.871-15.955-35.54s15.623-35.687,15.623-35.687
				s15.863,15.871,15.955,35.54C827.61,780.104,811.895,796.122,811.895,796.122z"/>
			<path fill="#4B03CD" d="M186.1,498.726c0,0,2.603,22.288-9.523,37.775c-12.126,15.487-34.387,18.308-34.387,18.308
				s-2.603-22.288,9.523-37.775C163.838,501.547,186.1,498.726,186.1,498.726z"/>
			<path fill="#4D6FA1" d="M1214.72,1183.659c0,0-19.287,11.469-38.374,6.716c-19.087-4.752-30.744-23.926-30.744-23.926
				s19.287-11.469,38.374-6.716S1214.72,1183.659,1214.72,1183.659z"/>
			<path fill="#B9873F" d="M801.425,1496.48c0,0-21.711,5.671-38.732-4.187c-17.02-9.859-22.904-31.513-22.904-31.513
				s21.711-5.671,38.732,4.187C795.541,1474.825,801.425,1496.48,801.425,1496.48z"/>
			<path fill="#3729F5" d="M1424.026,1246.86c0,0,17.14,14.483,18.883,34.075c1.743,19.592-12.572,36.873-12.572,36.873
				s-17.14-14.483-18.883-34.075C1409.711,1264.141,1424.026,1246.86,1424.026,1246.86z"/>
			<path fill="#217F65" d="M616.517,1477.941c0,0,19.964,10.245,26.08,28.939c6.116,18.694-3.933,38.758-3.933,38.758
				s-19.964-10.245-26.08-28.939C606.468,1498.005,616.517,1477.941,616.517,1477.941z"/>
			<path fill="#9DB7F3" d="M836.253,71.204c0,0,15.093,16.605,14.252,36.257c-0.841,19.651-17.297,34.907-17.297,34.907
				s-15.093-16.605-14.252-36.257C819.797,86.459,836.253,71.204,836.253,71.204z"/>
			<path fill="#0983A3" d="M812.935,64.063c0,0,7.349,21.202-1.15,38.94c-8.499,17.738-29.628,25.296-29.628,25.296
				s-7.349-21.202,1.15-38.94C791.806,71.62,812.935,64.063,812.935,64.063z"/>
			<path fill="#FB6727" d="M100.989,887.2c0,0-17.411-14.155-19.526-33.711c-2.114-19.555,11.87-37.105,11.87-37.105
				s17.411,14.155,19.526,33.711C114.973,869.651,100.989,887.2,100.989,887.2z"/>
			<path fill="#000BBB" d="M212.572,528.52c0,0,0.389,22.436-13.206,36.651c-13.595,14.214-36.027,14.824-36.027,14.824
				s-0.389-22.436,13.206-36.651C190.141,529.13,212.572,528.52,212.572,528.52z"/>
			<path fill="#633D9D" d="M122.795,746.955c0,0-5.098-21.853,5.205-38.608c10.303-16.755,32.104-22.068,32.104-22.068
				s5.098,21.853-5.204,38.608C144.596,741.642,122.795,746.955,122.795,746.955z"/>
			<path fill="#87353F" d="M858.861,625.408c0,0-10.729,19.708-29.567,25.366s-38.651-4.877-38.651-4.877
				s10.729-19.708,29.567-25.366C839.048,614.873,858.861,625.408,858.861,625.408z"/>
			<path fill="#855945" d="M1490.161,1224.342c0,0-3.495,22.166-19.343,33.816c-15.848,11.65-38.047,8.373-38.047,8.373
				s3.495-22.166,19.343-33.816C1467.962,1221.064,1490.161,1224.342,1490.161,1224.342z"/>
			<path fill="#3D410D" d="M998.069,1497.814c0,0-21.071,7.715-38.954-0.475s-25.805-29.186-25.805-29.186
				s21.071-7.715,38.954,0.475S998.069,1497.814,998.069,1497.814z"/>
			<path fill="#AF3BEF" d="M475.822,1474.292c0,0-11.66,19.172-30.748,23.922c-19.087,4.75-38.373-6.722-38.373-6.722
				s11.66-19.172,30.748-23.922C456.537,1462.82,475.822,1474.292,475.822,1474.292z"/>
			<path fill="#6BFB27" d="M1111.789,1477.534c0,0,14.11-17.448,33.66-19.612s37.136,11.774,37.136,11.774
				s-14.11,17.448-33.66,19.612S1111.789,1477.534,1111.789,1477.534z"/>
			<path fill="#B53DD5" d="M160.957,1071.507c0,0,22.287-2.614,37.78,9.503c15.494,12.117,18.327,34.378,18.327,34.378
				s-22.287,2.614-37.78-9.503S160.957,1071.507,160.957,1071.507z"/>
			<path fill="#119531" d="M30.503,737.138c0,0-6.531-21.468,2.643-38.867c9.173-17.399,30.577-24.14,30.577-24.14
				s6.531,21.468-2.643,38.867C51.906,730.397,30.503,737.138,30.503,737.138z"/>
			<path fill="#4300EB" d="M422.477,1427.252c0,0,2.222,22.329-10.165,37.608s-34.694,17.72-34.694,17.72
				s-2.222-22.329,10.165-37.607C400.17,1429.693,422.477,1427.252,422.477,1427.252z"/>
			<path fill="#7D170D" d="M1048.424,1113.133c0,0,22.297,2.523,34.629,17.847c12.332,15.324,10.028,37.645,10.028,37.645
				s-22.297-2.523-34.629-17.847C1046.12,1135.454,1048.424,1113.133,1048.424,1113.133z"/>
			<path fill="#8DA94F" d="M1035.846,1475.323c0,0,18.677-12.439,37.981-8.667c19.304,3.772,31.926,22.325,31.926,22.325
				s-18.677,12.439-37.981,8.667C1048.468,1493.876,1035.846,1475.323,1035.846,1475.323z"/>
			<path fill="#8FC33F" d="M114.225,626.123c0,0-22.412,1.12-37.062-12.005c-14.65-13.125-15.99-35.524-15.99-35.524
				s22.412-1.12,37.061,12.004C112.884,603.724,114.225,626.123,114.225,626.123z"/>
			<path fill="#EF8F0B" d="M1471.115,775.473c0,0,15.541-16.186,35.204-16.683c19.663-0.496,36.001,14.885,36.001,14.885
				s-15.541,16.186-35.204,16.683C1487.453,790.855,1471.115,775.473,1471.115,775.473z"/>
			<path fill="#0B399D" d="M102.347,496.519c0,0-4.493-21.985,6.269-38.45c10.761-16.464,32.702-21.173,32.702-21.173
				s4.493,21.985-6.269,38.45C124.287,491.81,102.347,496.519,102.347,496.519z"/>
			<path fill="#E3D351" d="M540.498,1155.412c0,0,1.704,22.375-11.035,37.362c-12.739,14.987-35.096,16.911-35.096,16.911
				s-1.704-22.375,11.035-37.362C518.141,1157.335,540.498,1155.412,540.498,1155.412z"/>
			<path fill="#65AFD5" d="M818.026,1401.275c0,0,10.014,20.081,3.867,38.765c-6.148,18.684-26.13,28.895-26.13,28.895
				s-10.014-20.081-3.867-38.765S818.026,1401.275,818.026,1401.275z"/>
			<path fill="#635B69" d="M390.948,1142.412c0,0,17.396-14.174,36.973-12.273c19.577,1.901,33.922,19.157,33.922,19.157
				s-17.396,14.174-36.973,12.273C405.292,1159.668,390.948,1142.412,390.948,1142.412z"/>
			<path fill="#FD5F53" d="M1547.828,635.481c0,0,4.84,21.911-5.659,38.544c-10.5,16.633-32.362,21.688-32.362,21.688
				s-4.84-21.911,5.659-38.544C1525.965,640.536,1547.828,635.481,1547.828,635.481z"/>
			<path fill="#09C7AB" d="M1310.589,1419.821c0,0,0.52-22.433,14.68-36.085c14.16-13.652,36.598-13.352,36.598-13.352
				s-0.52,22.433-14.68,36.085C1333.027,1420.121,1310.589,1419.821,1310.589,1419.821z"/>
			<path fill="#058531" d="M1496.871,442.722c0,0-21.515-6.374-30.985-23.613c-9.47-17.24-3.308-38.817-3.308-38.817
				s21.515,6.374,30.985,23.613C1503.033,421.145,1496.871,442.722,1496.871,442.722z"/>
			<path fill="#77AF1F" d="M1309.113,197.985c0,0-15.038,16.655-34.677,17.754c-19.639,1.099-36.441-13.775-36.441-13.775
				s15.038-16.655,34.677-17.754C1292.311,183.111,1309.113,197.985,1309.113,197.985z"/>
			<path fill="#3DBD01" d="M1152.127,1431.833c0,0,19.44-11.209,38.461-6.2c19.021,5.008,30.42,24.337,30.42,24.337
				s-19.44,11.209-38.461,6.2C1163.526,1451.162,1152.127,1431.833,1152.127,1431.833z"/>
			<path fill="#8B539F" d="M891.074,867.182c0,0,12.183,18.844,8.149,38.095c-4.034,19.251-22.758,31.619-22.758,31.619
				s-12.183-18.844-8.149-38.095C872.351,879.55,891.074,867.182,891.074,867.182z"/>
			<path fill="#23DD03" d="M917.18,100.552c0,0,9.643,20.262,3.152,38.829c-6.491,18.568-26.657,28.409-26.657,28.409
				s-9.643-20.262-3.152-38.829C897.013,110.393,917.18,100.552,917.18,100.552z"/>
			<path fill="#77DF6D" d="M686.274,1492.417c0,0-21.715,5.655-38.728-4.217c-17.013-9.871-22.88-31.53-22.88-31.53
				s21.715-5.655,38.728,4.217S686.274,1492.417,686.274,1492.417z"/>
			<path fill="#170543" d="M1561.986,577.849c0,0,17.691,13.804,20.196,33.313c2.505,19.509-11.125,37.335-11.125,37.335
				s-17.691-13.804-20.196-33.313S1561.986,577.849,1561.986,577.849z"/>
			<path fill="#BD072F" d="M576.346,147.03c0,0,3.374-22.184,19.158-33.921c15.784-11.736,38.001-8.58,38.001-8.58
				s-3.374,22.184-19.158,33.921C598.562,150.187,576.346,147.03,576.346,147.03z"/>
			<path fill="#D57993" d="M1249.262,1157.847c0,0,14.795,16.871,13.605,36.505s-17.916,34.594-17.916,34.594
				s-14.795-16.871-13.605-36.505S1249.262,1157.847,1249.262,1157.847z"/>
			<path fill="#B503DF" d="M249.802,1269.385c0,0-3.215,22.208-18.915,34.057c-15.7,11.849-37.938,8.852-37.938,8.852
				s3.215-22.208,18.915-34.057C227.563,1266.388,249.802,1269.385,249.802,1269.385z"/>
			<path fill="#8169D9" d="M565.873,977.986c0,0,9.253-20.443,27.625-27.468c18.372-7.026,38.905,2.027,38.905,2.027
				s-9.253,20.443-27.625,27.468C586.405,987.038,565.873,977.986,565.873,977.986z"/>
			<path fill="#1D09CF" d="M335.735,1424.676c0,0-22.308,2.428-37.7-9.819c-15.392-12.247-18.038-34.53-18.038-34.53
				s22.308-2.428,37.7,9.819C333.089,1402.393,335.735,1424.676,335.735,1424.676z"/>
			<path fill="#ABB9E1" d="M748.565,225.997c0,0-0.499-22.434,13.027-36.715c13.526-14.281,35.954-15,35.954-15
				s0.499,22.434-13.027,36.715C770.993,225.278,748.565,225.997,748.565,225.997z"/>
			<path fill="#9373CB" d="M93.802,1026.518c0,0,11.452,19.297,6.684,38.38c-4.769,19.083-23.953,30.724-23.953,30.724
				s-11.452-19.297-6.684-38.38C74.618,1038.16,93.802,1026.518,93.802,1026.518z"/>
			<path fill="#B1D79D" d="M991.729,984.915c0,0,22.439,0.019,36.404,13.871c13.965,13.852,14.165,36.291,14.165,36.291
				s-22.44-0.019-36.404-13.871C991.93,1007.354,991.729,984.915,991.729,984.915z"/>
			<path fill="#EF8BDF" d="M599.272,1004.357c0,0-13.94,17.584-33.468,19.939c-19.528,2.354-37.248-11.413-37.248-11.413
				s13.94-17.584,33.468-19.939C581.552,990.59,599.272,1004.357,599.272,1004.357z"/>
			<path fill="#9BCB7D" d="M785.551,233.001c0,0,6.957-21.334,24.449-30.33c17.491-8.997,38.892-2.249,38.892-2.249
				s-6.957,21.334-24.449,30.33C806.952,239.749,785.551,233.001,785.551,233.001z"/>
			<path fill="#7DF369" d="M1527.733,1090.408c0,0-20.58,8.943-38.915,1.82c-18.334-7.123-27.479-27.615-27.479-27.615
				s20.58-8.943,38.915-1.82C1518.588,1069.917,1527.733,1090.408,1527.733,1090.408z"/>
			<path fill="#7309C3" d="M1538.626,578.463c0,0-15.474-16.251-15.089-35.917s16.484-35.298,16.484-35.298
				s15.474,16.251,15.089,35.916C1554.724,562.83,1538.626,578.463,1538.626,578.463z"/>
			<path fill="#8995F5" d="M1013.424,1515.86c0,0-6.705,21.414-24.089,30.617c-17.384,9.203-38.863,2.708-38.863,2.708
				s6.705-21.414,24.089-30.617S1013.424,1515.86,1013.424,1515.86z"/>
			<path fill="#951D67" d="M746.364,826.676c0,0-7.791-21.043,0.335-38.956c8.126-17.912,29.092-25.91,29.092-25.91
				s7.791,21.043-0.335,38.956C767.33,818.679,746.364,826.676,746.364,826.676z"/>
			<path fill="#B9391B" d="M145.015,816.438c0,0-16.364-15.354-17.086-35.01c-0.722-19.656,14.471-36.17,14.471-36.17
				s16.364,15.354,17.086,35.01S145.015,816.438,145.015,816.438z"/>
			<path fill="#A16325" d="M178.88,1008.496c0,0-22.069-4.063-33.308-20.205c-11.239-16.142-7.393-38.249-7.393-38.249
				s22.069,4.063,33.308,20.205C182.727,986.388,178.88,1008.496,178.88,1008.496z"/>
			<path fill="#D937EF" d="M755.294,572.888c0,0-7.647-21.096,0.601-38.953c8.248-17.856,29.269-25.71,29.269-25.71
				s7.647,21.096-0.601,38.953S755.294,572.888,755.294,572.888z"/>
			<path fill="#837B0B" d="M266.205,446.74c0,0-18.3,12.986-37.708,9.787c-19.408-3.199-32.573-21.371-32.573-21.371
				s18.3-12.986,37.708-9.787C253.04,428.568,266.205,446.74,266.205,446.74z"/>
			<path fill="#D1BBCD" d="M468.948,247.265c0,0-22.146-3.62-33.707-19.533c-11.561-15.913-8.159-38.093-8.159-38.093
				s22.146,3.62,33.707,19.533C472.35,225.085,468.948,247.265,468.948,247.265z"/>
			<path fill="#9B7B77" d="M104.435,752.696c0,0-20.698-8.667-28.244-26.831c-7.546-18.164,0.917-38.947,0.917-38.947
				s20.698,8.667,28.244,26.831C112.899,731.913,104.435,752.696,104.435,752.696z"/>
			<path fill="#17197F" d="M359.488,243.45c0,0,4.674-21.947,21.122-32.734c16.448-10.787,38.44-6.329,38.44-6.329
				s-4.674,21.947-21.122,32.734C381.48,247.909,359.488,243.45,359.488,243.45z"/>
			<path fill="#F3A3F9" d="M1476.83,679.576c0,0,20.38,9.39,27.283,27.809c6.902,18.419-2.287,38.89-2.287,38.89
				s-20.38-9.39-27.283-27.809C1467.641,700.048,1476.83,679.576,1476.83,679.576z"/>
			<path fill="#9BDFB9" d="M417.582,1189.38c0,0,15.023-16.669,34.661-17.785c19.638-1.116,36.453,13.742,36.453,13.742
				s-15.023,16.669-34.661,17.785C434.397,1204.239,417.582,1189.38,417.582,1189.38z"/>
			<path fill="#77A56D" d="M1597.683,971.519c0,0-22.396,1.402-37.209-11.538c-14.814-12.94-16.435-35.321-16.435-35.321
				s22.396-1.401,37.209,11.538C1596.061,949.138,1597.683,971.519,1597.683,971.519z"/>
			<path fill="#999385" d="M799.371,1553.924c0,0,12.282-18.78,31.514-22.902s38.133,7.974,38.133,7.974
				s-12.282,18.78-31.514,22.902C818.271,1566.021,799.371,1553.924,799.371,1553.924z"/>
			<path fill="#9D2539" d="M634.66,136.478c0,0,8.105-20.925,26.059-28.958c17.954-8.034,38.957-0.134,38.957-0.134
				s-8.105,20.925-26.059,28.958C655.664,144.377,634.66,136.478,634.66,136.478z"/>
			<path fill="#9547B1" d="M1290.271,1399.082c0,0-4.652-21.952,5.99-38.494c10.642-16.542,32.548-21.409,32.548-21.409
				s4.652,21.952-5.99,38.494C1312.176,1394.215,1290.271,1399.082,1290.271,1399.082z"/>
			<path fill="#B189A7" d="M1529.493,1110.953c0,0-6.52-21.472,2.663-38.866c9.182-17.395,30.589-24.125,30.589-24.125
				s6.52,21.472-2.662,38.866C1550.9,1104.223,1529.493,1110.953,1529.493,1110.953z"/>
			<path fill="#35C18D" d="M850.073,1363.812c0,0-20.345,9.467-38.855,2.816c-18.511-6.651-28.177-26.902-28.177-26.902
				s20.345-9.467,38.855-2.816C840.406,1343.561,850.073,1363.812,850.073,1363.812z"/>
			<path fill="#0F55D7" d="M888.893,814.541c0,0-22.431,0.603-36.774-12.857c-14.343-13.46-15.166-35.884-15.166-35.884
				s22.431-0.603,36.774,12.857C888.071,792.116,888.893,814.541,888.893,814.541z"/>
			<path fill="#8D33F7" d="M107.18,1082.827c0,0-1.238-22.405,11.81-37.124c13.048-14.719,35.44-16.176,35.44-16.176
				s1.238,22.405-11.81,37.124C129.572,1081.369,107.18,1082.827,107.18,1082.827z"/>
			<path fill="#573775" d="M876.159,299.374c0,0,7.722,21.069-0.463,38.954c-8.185,17.886-29.177,25.814-29.177,25.814
				s-7.722-21.069,0.463-38.954C855.167,307.303,876.159,299.374,876.159,299.374z"/>
			<path fill="#D77715" d="M289.524,425.421c0,0-21.56,6.22-38.825-3.204c-17.265-9.424-23.696-30.922-23.696-30.922
				s21.56-6.22,38.825,3.204C283.093,403.922,289.524,425.421,289.524,425.421z"/>
			<path fill="#318B4F" d="M478.134,113.573c0,0,10.43-19.868,29.181-25.81c18.751-5.942,38.72,4.293,38.72,4.293
				s-10.43,19.868-29.181,25.81C498.104,123.808,478.134,113.573,478.134,113.573z"/>
			<path fill="#DDCF1B" d="M1514.759,657.958c0,0-20.974,7.977-38.957,0.009s-26.166-28.862-26.166-28.862
				s20.974-7.977,38.957-0.009C1506.576,637.064,1514.759,657.958,1514.759,657.958z"/>
			<path fill="#B3D111" d="M882.4,38.416c0,0,18.178-13.157,37.614-10.14c19.437,3.017,32.771,21.064,32.771,21.064
				s-18.178,13.157-37.614,10.14C895.734,56.464,882.4,38.416,882.4,38.416z"/>
			<path fill="#8781C7" d="M692.686,991.475c0,0,5.797,21.678-3.962,38.755s-31.379,23.087-31.379,23.087
				s-5.797-21.678,3.962-38.755S692.686,991.475,692.686,991.475z"/>
			<path fill="#8917D5" d="M83.415,894.637c0,0-21.861,5.064-38.6-5.264c-16.739-10.329-22.018-32.138-22.018-32.138
				s21.861-5.064,38.6,5.264C78.137,872.827,83.415,894.637,83.415,894.637z"/>
			<path fill="#D3F3F7" d="M827.045,706.705c0,0,22.375-1.694,37.357,11.052c14.981,12.746,16.894,35.104,16.894,35.104
				s-22.375,1.694-37.357-11.052C828.958,729.063,827.045,706.705,827.045,706.705z"/>
			<path fill="#7DF1A5" d="M353.448,332.358c0,0-7.21,21.25-24.807,30.038c-17.597,8.788-38.916,1.787-38.916,1.787
				s7.21-21.25,24.807-30.038C332.129,325.356,353.448,332.358,353.448,332.358z"/>
			<path fill="#ABB3C1" d="M499.4,1090.271c0,0-9.913-20.131-3.67-38.784s26.276-28.762,26.276-28.762s9.913,20.131,3.67,38.784
				C519.434,1080.161,499.4,1090.271,499.4,1090.271z"/>
			<path fill="#198353" d="M781.445,372.241c0,0,20.434-9.273,38.88-2.446c18.447,6.827,27.92,27.169,27.92,27.169
				s-20.434,9.273-38.88,2.446C790.918,392.583,781.445,372.241,781.445,372.241z"/>
			<path fill="#CF1F55" d="M805.809,985.428c0,0,18.616-12.529,37.939-8.85c19.322,3.679,32.033,22.171,32.033,22.171
				s-18.616,12.528-37.939,8.85C818.52,1003.921,805.809,985.428,805.809,985.428z"/>
			<path fill="#4FA3DF" d="M1224.867,1283.653c0,0-0.397-22.436,13.193-36.655s36.021-14.837,36.021-14.837
				s0.397,22.436-13.193,36.655S1224.867,1283.653,1224.867,1283.653z"/>
			<path fill="#83F933" d="M611.027,1007.29c0,0,4.857-21.908,21.394-32.557s38.491-6.008,38.491-6.008s-4.857,21.908-21.394,32.557
				C632.982,1011.932,611.027,1007.29,611.027,1007.29z"/>
			<path fill="#1DC3AB" d="M567.925,1459.514c0,0-22.387,1.536-37.278-11.316c-14.891-12.851-16.646-35.222-16.646-35.222
				s22.387-1.536,37.278,11.316C566.17,1437.143,567.925,1459.514,567.925,1459.514z"/>
			<path fill="#51F921" d="M72.035,928.94c0,0,5.721-21.698,22.668-31.684c16.946-9.986,38.699-4.477,38.699-4.477
				s-5.721,21.698-22.668,31.684C93.788,934.448,72.035,928.94,72.035,928.94z"/>
			<path fill="#432D93" d="M955.297,951.432c0,0-22.407-1.205-35.62-15.775c-13.213-14.57-12.228-36.989-12.228-36.989
				s22.407,1.205,35.62,15.775C956.282,929.014,955.297,951.432,955.297,951.432z"/>
			<path fill="#4165A1" d="M1188.015,1093.073c0,0,4.936,21.89-5.491,38.568c-10.427,16.678-32.267,21.829-32.267,21.829
				s-4.936-21.89,5.491-38.568S1188.015,1093.073,1188.015,1093.073z"/>
			<path fill="#C3ED8D" d="M565.18,1032.778c0,0,8.307,20.845,0.624,38.952s-28.446,26.618-28.446,26.618
				s-8.307-20.845-0.624-38.952S565.18,1032.778,565.18,1032.778z"/>
			<path fill="#2FA90D" d="M331.726,312.345c0,0-1.02-22.416,12.17-37.008c13.19-14.591,35.596-15.832,35.596-15.832
				s1.02,22.416-12.17,37.008C354.131,311.104,331.726,312.345,331.726,312.345z"/>
			<path fill="#138109" d="M1220.125,229.087c0,0,19.432-11.222,38.456-6.227c19.025,4.995,30.437,24.316,30.437,24.316
				s-19.432,11.222-38.456,6.227C1231.538,248.407,1220.125,229.087,1220.125,229.087z"/>
			<path fill="#CB8529" d="M940.5,63.639c0,0,15.876,15.858,15.983,35.527c0.107,19.669-15.594,35.7-15.594,35.7
				s-15.876-15.858-15.983-35.527C924.798,79.669,940.5,63.639,940.5,63.639z"/>
			<path fill="#07FF1F" d="M259.845,341.209c0,0,22.059,4.114,33.261,20.282c11.202,16.168,7.304,38.267,7.304,38.267
				s-22.059-4.114-33.261-20.282C255.948,363.308,259.845,341.209,259.845,341.209z"/>
			<path fill="#09F7E9" d="M152.596,641.068c0,0-5.014-21.872,5.353-38.588c10.367-16.716,32.189-21.944,32.189-21.944
				s5.014,21.872-5.353,38.588C174.418,635.84,152.596,641.068,152.596,641.068z"/>
			<path fill="#81194F" d="M1147.492,1416.928c0,0,0.281-22.438,14.294-36.24c14.014-13.802,36.453-13.742,36.453-13.742
				s-0.281,22.438-14.294,36.24C1169.932,1416.988,1147.492,1416.928,1147.492,1416.928z"/>
			<path fill="#4757B9" d="M982.452,1579.814c0,0-15.633,16.097-35.299,16.481c-19.666,0.384-35.916-15.091-35.916-15.091
				s15.633-16.097,35.299-16.481S982.452,1579.814,982.452,1579.814z"/>
			<path fill="#257333" d="M1260.518,1347.88c0,0,16.528,15.177,17.462,34.824c0.934,19.647-14.081,36.324-14.081,36.324
				s-16.528-15.177-17.462-34.824S1260.518,1347.88,1260.518,1347.88z"/>
			<path fill="#59A541" d="M76.004,851.396c0,0-22.174,3.44-38.107-8.094c-15.933-11.534-19.59-33.673-19.59-33.673
				s22.174-3.44,38.107,8.094C72.346,829.256,76.004,851.396,76.004,851.396z"/>
			<path fill="#5F255D" d="M514.671,1506.291c0,0,17.051-14.588,36.668-13.157c19.617,1.431,34.372,18.338,34.372,18.338
				s-17.051,14.588-36.668,13.157C529.426,1523.198,514.671,1506.291,514.671,1506.291z"/>
			<path fill="#E1F7A5" d="M1551.835,827.793c0,0-18.719,12.375-38.01,8.537c-19.291-3.838-31.849-22.434-31.849-22.434
				s18.719-12.375,38.01-8.537C1539.277,809.197,1551.835,827.793,1551.835,827.793z"/>
			<path fill="#E39DFD" d="M855.322,419.516c0,0-10.062-20.057-3.958-38.756c6.104-18.698,26.061-28.957,26.061-28.957
				s10.062,20.057,3.958,38.756C875.279,409.258,855.322,419.516,855.322,419.516z"/>
			<path fill="#F14BD9" d="M1266.132,314.058c0,0,22.099-3.891,38.264,7.315s20.273,33.267,20.273,33.267
				s-22.099,3.891-38.264-7.315C1270.24,336.119,1266.132,314.058,1266.132,314.058z"/>
			<path fill="#69D545" d="M1400.723,301.386c0,0-22.439,0.069-36.458-13.728c-14.019-13.797-14.308-36.235-14.308-36.235
				s22.439-0.069,36.458,13.729C1400.434,278.948,1400.723,301.386,1400.723,301.386z"/>
			<path fill="#EF41FD" d="M881.927,1415.967c0,0-20.923,8.11-38.956,0.258c-18.034-7.853-26.349-28.695-26.349-28.695
				s20.923-8.11,38.956-0.257C873.612,1395.125,881.927,1415.967,881.927,1415.967z"/>
			<path fill="#33EBED" d="M1311.894,1408.888c0,0-1.223,22.406-15.804,35.607c-14.581,13.201-36.999,12.198-36.999,12.198
				s1.223-22.406,15.804-35.607C1289.477,1407.885,1311.894,1408.888,1311.894,1408.888z"/>
			<path fill="#F967E5" d="M806.206,241.881c0,0-5.892,21.652-22.917,31.504c-17.024,9.852-38.733,4.172-38.733,4.172
				s5.892-21.652,22.917-31.504S806.206,241.881,806.206,241.881z"/>
			<path fill="#056743" d="M383.887,258.961c0,0,15.539-16.189,35.202-16.688c19.663-0.499,36.004,14.88,36.004,14.88
				s-15.539,16.189-35.202,16.688C400.228,274.34,383.887,258.961,383.887,258.961z"/>
			<path fill="#2D4F35" d="M869.371,88.493c0,0-18.347-12.92-21.806-32.283c-3.459-19.363,9.281-37.836,9.281-37.836
				s18.347,12.92,21.806,32.283C882.11,70.02,869.371,88.493,869.371,88.493z"/>
			<path fill="#CF9DC1" d="M772.844,369.143c0,0-18.945-12.025-23.329-31.2s7.455-38.237,7.455-38.237s18.945,12.025,23.329,31.2
				C784.682,350.08,772.844,369.143,772.844,369.143z"/>
			<path fill="#E97589" d="M877.45,1062.763c0,0-3.933,22.092-20.008,33.426c-16.075,11.334-38.205,7.618-38.205,7.618
				s3.933-22.092,20.008-33.427C855.32,1059.047,877.45,1062.763,877.45,1062.763z"/>
			<path fill="#7D5B03" d="M811.66,1021.408c0,0,20.06-10.056,38.757-3.947c18.697,6.109,28.949,26.07,28.949,26.07
				s-20.06,10.056-38.757,3.947S811.66,1021.408,811.66,1021.408z"/>
			<path fill="#8F5D53" d="M987.668,1482.925c0,0,4.255-22.032,20.494-33.131c16.239-11.099,38.312-7.06,38.312-7.06
				s-4.255,22.032-20.494,33.131C1009.742,1486.963,987.668,1482.925,987.668,1482.925z"/>
			<path fill="#D387DF" d="M1594.047,775.566c0,0-18.411-12.829-21.966-32.174c-3.555-19.346,9.093-37.881,9.093-37.881
				s18.411,12.829,21.966,32.174C1606.695,757.03,1594.047,775.566,1594.047,775.566z"/>
			<path fill="#4FB7D9" d="M1393.732,371.386c0,0-14.686,16.967-34.297,18.477c-19.611,1.51-36.721-13.008-36.721-13.008
				s14.686-16.967,34.297-18.477S1393.732,371.386,1393.732,371.386z"/>
			<path fill="#476925" d="M833.328,851.79c0,0-5.149,21.841-21.826,32.269c-16.678,10.428-38.568,5.494-38.568,5.494
				s5.149-21.841,21.826-32.269C811.438,846.856,833.328,851.79,833.328,851.79z"/>
			<path fill="#3D4DD7" d="M560.507,206.725c0,0-13.361-18.028-10.563-37.498s20.694-33.006,20.694-33.006
				s13.361,18.028,10.563,37.498C578.403,193.188,560.507,206.725,560.507,206.725z"/>
			<path fill="#BBD7C5" d="M1463.664,532.946c0,0-22.218,3.144-37.996-8.6c-15.778-11.745-19.14-33.931-19.14-33.931
				s22.218-3.144,37.996,8.6C1460.302,510.759,1463.664,532.946,1463.664,532.946z"/>
			<path fill="#0D8B61" d="M586.185,1065.642c0,0,17.919-13.508,37.41-10.869s33.175,20.423,33.175,20.423
				s-17.919,13.508-37.41,10.87C599.868,1083.427,586.185,1065.642,586.185,1065.642z"/>
			<path fill="#398B8F" d="M1457.089,1205.654c0,0-6.834,21.374-24.273,30.471s-38.879,2.474-38.879,2.474
				s6.834-21.374,24.273-30.471C1435.649,1199.031,1457.089,1205.654,1457.089,1205.654z"/>
			<path fill="#AF6B8D" d="M909.759,999.542c0,0-17.402-14.166-19.504-33.723c-2.102-19.557,11.893-37.098,11.893-37.098
				s17.402,14.166,19.504,33.723C923.754,982.002,909.759,999.542,909.759,999.542z"/>
			<path fill="#1DC99F" d="M53.714,968.45c0,0,19.071,11.826,23.655,30.953c4.584,19.128-7.054,38.314-7.054,38.314
				s-19.071-11.826-23.655-30.953C42.076,987.636,53.714,968.45,53.714,968.45z"/>
			<path fill="#D9E713" d="M1149.802,1128.876c0,0-17.808,13.653-37.321,11.173s-33.34-20.153-33.34-20.153
				s17.808-13.653,37.321-11.173S1149.802,1128.876,1149.802,1128.876z"/>
			<path fill="#D57577" d="M440.991,1242.813c0,0-22.422,0.891-36.937-12.382c-14.515-13.274-15.627-35.686-15.627-35.686
				s22.422-0.891,36.937,12.382C439.88,1220.401,440.991,1242.813,440.991,1242.813z"/>
			<path fill="#ADBBCF" d="M1131.772,150.979c0,0-22.338,2.13-37.565-10.32c-15.227-12.451-17.577-34.767-17.577-34.767
				s22.338-2.13,37.565,10.32C1129.423,128.663,1131.772,150.979,1131.772,150.979z"/>
			<path fill="#FB7561" d="M237.249,344.995c0,0-15.889-15.845-16.013-35.514c-0.124-19.669,15.565-35.713,15.565-35.713
				s15.889,15.845,16.013,35.514C252.938,328.951,237.249,344.995,237.249,344.995z"/>
			<path fill="#7171D1" d="M156.74,1268.324c0,0,11.843-19.06,30.975-23.626c19.132-4.567,38.307,7.089,38.307,7.089
				s-11.843,19.06-30.975,23.626C175.915,1279.98,156.74,1268.324,156.74,1268.324z"/>
			<path fill="#7B2B37" d="M1210.319,1492.122c0,0-9.524,20.318-27.987,27.1c-18.464,6.781-38.874-2.542-38.874-2.542
				s9.524-20.318,27.987-27.1C1189.908,1482.798,1210.319,1492.122,1210.319,1492.122z"/>
			<path fill="#D52F71" d="M1525.364,458.439c0,0-0.263,22.438-14.266,36.251c-14.003,13.813-36.443,13.77-36.443,13.77
				s0.263-22.438,14.266-36.251C1502.924,458.396,1525.364,458.439,1525.364,458.439z"/>
			<path fill="#C983C7" d="M85.582,1124.812c0,0,5.605-21.728,22.497-31.805c16.892-10.077,38.675-4.686,38.675-4.686
				s-5.605,21.728-22.497,31.805C107.364,1130.203,85.582,1124.812,85.582,1124.812z"/>
			<path fill="#D9BDE1" d="M1035.826,1584.476c0,0-9.234-20.451-2.372-38.885c6.862-18.434,27.222-27.868,27.222-27.868
				s9.234,20.451,2.372,38.885C1056.186,1575.041,1035.826,1584.476,1035.826,1584.476z"/>
			<path fill="#2B6F9B" d="M203.157,1143.31c0,0-20.838,8.325-38.952,0.657c-18.113-7.667-26.642-28.423-26.642-28.423
				s20.838-8.325,38.952-0.657C194.628,1122.554,203.157,1143.31,203.157,1143.31z"/>
			<path fill="#CFC3ED" d="M870.95,574.963c0,0-18.385-12.865-21.902-32.218c-3.516-19.353,9.168-37.863,9.168-37.863
				s18.385,12.865,21.902,32.218C883.634,556.452,870.95,574.963,870.95,574.963z"/>
			<path fill="#F30F21" d="M1549.766,867.471c0,0,6.476-21.485,23.76-30.872c17.285-9.388,38.832-3.123,38.832-3.123
				s-6.476,21.485-23.76,30.872C1571.313,873.736,1549.766,867.471,1549.766,867.471z"/>
			<path fill="#EFA717" d="M862.59,909.251c0,0-13.386,18.009-32.832,20.97c-19.445,2.961-37.585-10.248-37.585-10.248
				s13.386-18.009,32.832-20.97C844.45,896.042,862.59,909.251,862.59,909.251z"/>
			<path fill="#BBA97D" d="M785.849,1126.807c0,0,21.698-5.721,38.741,4.098c17.043,9.819,22.977,31.46,22.977,31.46
				s-21.698,5.721-38.741-4.098C791.783,1148.448,785.849,1126.807,785.849,1126.807z"/>
			<path fill="#03294D" d="M1198.43,151.512c0,0,19.841-10.482,38.664-4.774c18.823,5.708,29.499,25.445,29.499,25.445
				s-19.841,10.482-38.664,4.774C1209.106,171.249,1198.43,151.512,1198.43,151.512z"/>
			<path fill="#972D37" d="M824.368,1277.367c0,0-15.901,15.833-35.571,15.887s-35.658-15.691-35.658-15.691
				s15.901-15.833,35.571-15.887C808.38,1261.622,824.368,1277.367,824.368,1277.367z"/>
			<path fill="#A77F97" d="M200.437,521.407c0,0-6.481-21.483,2.732-38.861c9.213-17.378,30.632-24.07,30.632-24.07
				s6.481,21.483-2.732,38.861C221.856,514.715,200.437,521.407,200.437,521.407z"/>
			<path fill="#2B7181" d="M1345.245,413.977c0,0,17.262-14.337,36.856-12.62c19.594,1.717,34.1,18.838,34.1,18.838
				s-17.262,14.337-36.856,12.62C1359.751,431.098,1345.245,413.977,1345.245,413.977z"/>
			<path fill="#F55BA1" d="M355.854,1342.584c0,0,11.897,19.026,7.573,38.214c-4.324,19.188-23.232,31.272-23.232,31.272
				s-11.897-19.026-7.573-38.214C336.946,1354.667,355.854,1342.584,355.854,1342.584z"/>
			<path fill="#C9EF53" d="M1061.336,204.35c0,0,3.746-22.125,19.726-33.594c15.979-11.47,38.14-7.94,38.14-7.94
				s-3.746,22.125-19.726,33.594C1083.497,207.879,1061.336,204.35,1061.336,204.35z"/>
			<path fill="#C75143" d="M752.786,509.089c0,0-4.811-21.918,5.711-38.536c10.522-16.619,32.391-21.645,32.391-21.645
				s4.811,21.918-5.711,38.536C774.656,504.063,752.786,509.089,752.786,509.089z"/>
			<path fill="#A52B5D" d="M949.038,61.074c0,0,14.222-17.357,33.786-19.395c19.563-2.039,37.059,12.013,37.059,12.013
				s-14.222,17.357-33.786,19.395C966.533,75.126,949.038,61.074,949.038,61.074z"/>
			<path fill="#89BBF9" d="M828.867,266.997c0,0-0.553,22.433-14.732,36.064c-14.18,13.631-36.617,13.299-36.617,13.299
				s0.552-22.433,14.732-36.064C806.43,266.665,828.867,266.997,828.867,266.997z"/>
			<path fill="#9F297F" d="M1154.921,1450.999c0,0-22.438,0.204-36.54-13.508c-14.102-13.712-14.526-36.148-14.526-36.148
				s22.439-0.204,36.54,13.508C1154.497,1428.563,1154.921,1450.999,1154.921,1450.999z"/>
			<path fill="#E5211F" d="M1370.578,1173.348c0,0,19.584-10.954,38.538-5.699s30.1,24.731,30.1,24.731s-19.584,10.954-38.538,5.699
				S1370.578,1173.348,1370.578,1173.348z"/>
			<path fill="#29553B" d="M875.31,137.519c0,0-0.331,22.437-14.375,36.208c-14.045,13.771-36.484,13.66-36.484,13.66
				s0.331-22.437,14.375-36.208C852.87,137.408,875.31,137.519,875.31,137.519z"/>
			<path fill="#DFF9BF" d="M1092.844,158.863c0,0-21.986,4.49-38.449-6.273c-16.463-10.763-21.169-32.704-21.169-32.704
				s21.986-4.49,38.449,6.273C1088.138,136.922,1092.844,158.863,1092.844,158.863z"/>
			<path fill="#1DEFC3" d="M1049.713,202.571c0,0-20.177-9.819-26.688-28.38c-6.511-18.561,3.11-38.833,3.11-38.833
				s20.177,9.819,26.688,28.38C1059.334,182.298,1049.713,202.571,1049.713,202.571z"/>
			<path fill="#873535" d="M555.685,1476.515c0,0-17.663,13.84-37.201,11.566c-19.538-2.274-33.55-19.8-33.55-19.8
				s17.663-13.84,37.201-11.566S555.685,1476.515,555.685,1476.515z"/>
			<path fill="#7D7B25" d="M838.949,1269.037c0,0-5.514-21.751,4.467-38.7c9.981-16.949,31.678-22.676,31.678-22.676
				s5.514,21.751-4.467,38.7C860.646,1263.31,838.949,1269.037,838.949,1269.037z"/>
			<path fill="#558127" d="M779.397,1186.227c0,0-20.114-9.948-26.506-28.55c-6.392-18.602,3.358-38.813,3.358-38.813
				s20.114,9.948,26.506,28.55C789.147,1166.016,779.397,1186.227,779.397,1186.227z"/>
			<path fill="#7D4967" d="M911.918,70.453c0,0-0.238,22.438-14.225,36.267c-13.987,13.829-36.427,13.811-36.427,13.811
				s0.238-22.438,14.225-36.267C889.479,70.436,911.918,70.453,911.918,70.453z"/>
			<path fill="#CFB799" d="M440.085,1258.54c0,0,1.203-22.407,15.772-35.622c14.569-13.215,36.987-12.232,36.987-12.232
				s-1.203,22.407-15.772,35.622C462.503,1259.523,440.085,1258.54,440.085,1258.54z"/>
			<path fill="#B19BD5" d="M1603.133,664.069c0,0-6.721,21.409-24.111,30.599c-17.391,9.19-38.865,2.679-38.865,2.679
				s6.721-21.409,24.111-30.599C1581.658,657.559,1603.133,664.069,1603.133,664.069z"/>
			<path fill="#3D459B" d="M754.947,679.436c0,0-8.135-20.913-0.303-38.956c7.832-18.043,28.664-26.383,28.664-26.383
				s8.135,20.913,0.303,38.956C775.779,671.096,754.947,679.436,754.947,679.436z"/>
			<path fill="#AD0BD1" d="M661.577,1579.102c0,0,18.215-13.106,37.643-10.034s32.712,21.157,32.712,21.157
				s-18.215,13.106-37.643,10.034C674.861,1597.187,661.577,1579.102,661.577,1579.102z"/>
			<path fill="#77D349" d="M835.175,669.213c0,0-6.607,21.445-23.948,30.727c-17.342,9.282-38.85,2.886-38.85,2.886
				s6.607-21.445,23.948-30.727C813.666,662.817,835.175,669.213,835.175,669.213z"/>
			<path fill="#1539EB" d="M778.336,26.989c0,0,20.067-10.043,38.759-3.921c18.693,6.122,28.932,26.089,28.932,26.089
				s-20.067,10.043-38.759,3.921C788.575,46.956,778.336,26.989,778.336,26.989z"/>
			<path fill="#A523D1" d="M1607.863,813.121c0,0-21.398,6.758-38.893-2.23c-17.496-8.988-24.464-30.318-24.464-30.318
				s21.398-6.758,38.893,2.23C1600.895,791.79,1607.863,813.121,1607.863,813.121z"/>
			<path fill="#67439D" d="M1032.621,72.755c0,0-5.946,21.637-22.995,31.446c-17.049,9.809-38.744,4.075-38.744,4.075
				s5.946-21.637,22.995-31.446C1010.926,67.021,1032.621,72.755,1032.621,72.755z"/>
			<path fill="#CDB5A7" d="M1544.652,1044.564c0,0-20.713,8.63-38.938,1.231s-27.058-28.028-27.058-28.028s20.713-8.63,38.938-1.231
				S1544.652,1044.564,1544.652,1044.564z"/>
			<path fill="#1B7DC5" d="M402.335,1380.519c0,0,22.253,2.884,34.335,18.405c12.082,15.521,9.417,37.802,9.417,37.802
				s-22.253-2.884-34.336-18.405C399.67,1402.799,402.335,1380.519,402.335,1380.519z"/>
			<path fill="#514171" d="M551.899,61.675c0,0,20.497,9.132,27.632,27.462c7.135,18.33-1.796,38.916-1.796,38.916
				s-20.497-9.132-27.632-27.462C542.969,82.261,551.899,61.675,551.899,61.675z"/>
			<path fill="#D725C5" d="M156.32,605.448c0,0-22.413-1.084-35.705-15.583c-13.292-14.499-12.428-36.922-12.428-36.922
				s22.413,1.084,35.705,15.583C157.184,583.024,156.32,605.448,156.32,605.448z"/>
			<path fill="#555901" d="M821.069,948.581c0,0,18.435-12.793,37.808-9.391c19.373,3.402,32.347,21.711,32.347,21.711
				s-18.435,12.793-37.808,9.391C834.043,966.89,821.069,948.581,821.069,948.581z"/>
			<path fill="#F57985" d="M721.832,1561.663c0,0,22.134-3.691,38.196,7.662c16.062,11.353,19.97,33.45,19.97,33.45
				s-22.134,3.691-38.196-7.662C725.739,1583.76,721.832,1561.663,721.832,1561.663z"/>
			<path fill="#3505A1" d="M1611.051,880.123c0,0-4.061,22.069-20.202,33.31c-16.141,11.241-38.249,7.397-38.249,7.397
				s4.061-22.069,20.202-33.31C1588.943,876.278,1611.051,880.123,1611.051,880.123z"/>
			<path fill="#D78739" d="M329.819,1283.36c0,0,17.715,13.774,20.253,33.279c2.538,19.505-11.062,37.354-11.062,37.354
				s-17.715-13.774-20.253-33.279C316.219,1301.209,329.819,1283.36,329.819,1283.36z"/>
			<path fill="#ADD337" d="M186.153,425.086c0,0,10.269,19.952,4.359,38.713s-25.76,29.225-25.76,29.225
				s-10.269-19.952-4.359-38.713C166.303,435.55,186.153,425.086,186.153,425.086z"/>
			<path fill="#8D7FB9" d="M333.888,1261.817c0,0,21.143-7.518,38.948,0.839c17.806,8.358,25.531,29.426,25.531,29.426
				s-21.143,7.518-38.948-0.839C341.613,1282.885,333.888,1261.817,333.888,1261.817z"/>
			<path fill="#C5CDAD" d="M570.548,1550.678c0,0-19.292,11.46-38.377,6.699c-19.085-4.761-30.734-23.94-30.734-23.94
				s19.292-11.46,38.377-6.699S570.548,1550.678,570.548,1550.678z"/>
			<path fill="#CB5585" d="M1460.501,1071.09c0,0,2.699,22.277-9.359,37.816c-12.058,15.54-34.307,18.458-34.307,18.458
				s-2.699-22.277,9.359-37.816C1438.252,1074.008,1460.501,1071.09,1460.501,1071.09z"/>
			<path fill="#7BA36D" d="M1017.475,113.206c0,0,8.461,20.783,0.913,38.946c-7.548,18.163-28.247,26.828-28.247,26.828
				s-8.461-20.783-0.913-38.947C996.775,121.87,1017.475,113.206,1017.475,113.206z"/>
			<path fill="#63D5A7" d="M1212.366,1288.976c0,0,22.273-2.729,37.829,9.308c15.556,12.037,18.504,34.283,18.504,34.283
				s-22.273,2.729-37.829-9.308C1215.314,1311.221,1212.366,1288.976,1212.366,1288.976z"/>
			<path fill="#D5131F" d="M271.532,1261.092c0,0-17.548-13.986-19.851-33.52s11.51-37.218,11.51-37.218s17.548,13.986,19.851,33.52
				S271.532,1261.092,271.532,1261.092z"/>
			<path fill="#599775" d="M547.984,1131.395c0,0-20.969,7.988-38.957,0.031c-17.988-7.958-26.181-28.848-26.181-28.848
				s20.969-7.988,38.957-0.03C539.791,1110.505,547.984,1131.395,547.984,1131.395z"/>
			<path fill="#475D4F" d="M745.174,1202.747c0,0,16.908-14.753,36.538-13.514s34.549,18.002,34.549,18.002
				s-16.908,14.753-36.538,13.514C760.093,1219.51,745.174,1202.747,745.174,1202.747z"/>
			<path fill="#955BC9" d="M714.88,961.102c0,0,19.962-10.249,38.717-4.321c18.755,5.928,29.2,25.789,29.2,25.789
				s-19.962,10.249-38.717,4.321C725.325,980.963,714.88,961.102,714.88,961.102z"/>
			<path fill="#7FBF29" d="M129.188,971.139c0,0-19.61,10.908-38.552,5.607c-18.942-5.301-30.042-24.803-30.042-24.803
				s19.61-10.908,38.552-5.607C118.088,951.637,129.188,971.139,129.188,971.139z"/>
			<path fill="#274599" d="M750.298,1516.049c0,0-22.282,2.653-37.797-9.438c-15.515-12.091-18.386-34.346-18.386-34.346
				s22.282-2.653,37.797,9.438C747.426,1493.793,750.298,1516.049,750.298,1516.049z"/>
			<path fill="#F5BF41" d="M813.212,1111.287c0,0-20.782,8.465-38.946,0.92s-26.833-28.243-26.833-28.243s20.782-8.465,38.946-0.92
				S813.212,1111.287,813.212,1111.287z"/>
			<path fill="#EF2151" d="M672.368,943.832c0,0,22.327,2.241,34.852,17.407s10.503,37.515,10.503,37.515
				s-22.327-2.241-34.852-17.407C670.346,966.181,672.368,943.832,672.368,943.832z"/>
			<path fill="#E32353" d="M811.407,494.053c0,0,17.317,14.27,19.302,33.839c1.984,19.569-12.115,37.026-12.115,37.026
				s-17.317-14.27-19.302-33.839C797.307,511.51,811.407,494.053,811.407,494.053z"/>
			<path fill="#D75BD3" d="M838.979,563.934c0,0,21.591,6.112,31.269,23.236c9.678,17.124,3.778,38.774,3.778,38.774
				s-21.591-6.112-31.269-23.236C833.079,585.584,838.979,563.934,838.979,563.934z"/>
			<path fill="#9FED3B" d="M1537.392,1124.715c0,0,2.176,22.334-10.243,37.586c-12.419,15.253-34.731,17.648-34.731,17.648
				s-2.176-22.334,10.243-37.586C1515.081,1127.111,1537.392,1124.715,1537.392,1124.715z"/>
			<path fill="#1DD77B" d="M882.586,415.67c0,0-3.974,22.085-20.07,33.389c-16.096,11.305-38.219,7.548-38.219,7.548
				s3.974-22.085,20.07-33.389C860.464,411.913,882.586,415.67,882.586,415.67z"/>
			<path fill="#35D7B5" d="M724.338,105.644c0,0-19.117-11.75-23.777-30.86c-4.66-19.11,6.903-38.341,6.903-38.341
				s19.117,11.75,23.777,30.86C735.9,86.413,724.338,105.644,724.338,105.644z"/>
			<path fill="#5F49EF" d="M1057.148,1101.992c0,0,6.721-21.409,24.112-30.599c17.391-9.189,38.865-2.679,38.865-2.679
				s-6.721,21.409-24.112,30.599C1078.622,1108.502,1057.148,1101.992,1057.148,1101.992z"/>
			<path fill="#3195D7" d="M1512.52,510.434c0,0,6.591,21.45-2.533,38.875c-9.124,17.425-30.508,24.227-30.508,24.227
				s-6.591-21.45,2.533-38.875S1512.52,510.434,1512.52,510.434z"/>
			<path fill="#1BD919" d="M801.435,1547.329c0,0,14.606,17.036,13.196,36.654c-1.41,19.619-18.301,34.391-18.301,34.391
				s-14.606-17.036-13.196-36.654C784.543,1562.102,801.435,1547.329,801.435,1547.329z"/>
			<path fill="#ED6BF7" d="M1001.012,1502.775c0,0,18.503-12.695,37.858-9.19c19.355,3.505,32.231,21.883,32.231,21.883
				s-18.503,12.695-37.858,9.19C1013.888,1521.153,1001.012,1502.775,1001.012,1502.775z"/>
			<path fill="#4F135D" d="M753.805,938.424c0,0,20.169-9.836,38.798-3.522c18.629,6.313,28.662,26.385,28.662,26.385
				s-20.169,9.836-38.798,3.522C763.838,958.496,753.805,938.424,753.805,938.424z"/>
		</g>
	</g>
</g>
</svg>
